<mxfile host="app.diagrams.net" agent="Mozilla/5.0 (Windows NT 10.0; Win64; x64) AppleWebKit/537.36 (KHTML, like Gecko) Chrome/132.0.0.0 Safari/537.36 Edg/132.0.0.0" version="26.0.6">
  <diagram name="第 1 页" id="8OPTQQ0Y6nEyz8aREW__">
    <mxGraphModel dx="1687" dy="894" grid="1" gridSize="13" guides="1" tooltips="1" connect="1" arrows="1" fold="1" page="0" pageScale="1" pageWidth="827" pageHeight="1169" math="0" shadow="0">
      <root>
        <mxCell id="0" />
        <mxCell id="1" parent="0" />
        <mxCell id="5en8-DEIEH1vQv8uQwFA-1" value="" style="rounded=0;whiteSpace=wrap;html=1;" vertex="1" parent="1">
          <mxGeometry x="91" y="117" width="32" height="676" as="geometry" />
        </mxCell>
        <mxCell id="5en8-DEIEH1vQv8uQwFA-4" value="" style="rounded=0;whiteSpace=wrap;html=1;" vertex="1" parent="1">
          <mxGeometry x="377" y="117" width="39" height="676" as="geometry" />
        </mxCell>
        <mxCell id="5en8-DEIEH1vQv8uQwFA-5" value="" style="rounded=0;whiteSpace=wrap;html=1;" vertex="1" parent="1">
          <mxGeometry x="559" y="117" width="42" height="676" as="geometry" />
        </mxCell>
        <mxCell id="5en8-DEIEH1vQv8uQwFA-8" value="" style="rounded=0;whiteSpace=wrap;html=1;" vertex="1" parent="1">
          <mxGeometry x="936" y="120" width="39" height="673" as="geometry" />
        </mxCell>
        <mxCell id="5en8-DEIEH1vQv8uQwFA-14" value="" style="endArrow=classic;html=1;rounded=0;exitX=0.982;exitY=0.097;exitDx=0;exitDy=0;exitPerimeter=0;entryX=0;entryY=0.097;entryDx=0;entryDy=0;entryPerimeter=0;" edge="1" parent="1" source="5en8-DEIEH1vQv8uQwFA-1" target="5en8-DEIEH1vQv8uQwFA-4">
          <mxGeometry width="50" height="50" relative="1" as="geometry">
            <mxPoint x="104" y="260" as="sourcePoint" />
            <mxPoint x="442" y="260" as="targetPoint" />
          </mxGeometry>
        </mxCell>
        <mxCell id="5en8-DEIEH1vQv8uQwFA-17" value="&lt;font style=&quot;font-size: 18px;&quot;&gt;发起进入drc模式enter&lt;/font&gt;" style="text;html=1;align=center;verticalAlign=middle;whiteSpace=wrap;rounded=0;" vertex="1" parent="1">
          <mxGeometry x="182" y="138.5" width="169" height="39" as="geometry" />
        </mxCell>
        <mxCell id="5en8-DEIEH1vQv8uQwFA-18" value="&lt;span style=&quot;font-size: 18px;&quot;&gt;web 夺权用户(a)&lt;/span&gt;" style="text;html=1;align=center;verticalAlign=middle;whiteSpace=wrap;rounded=0;" vertex="1" parent="1">
          <mxGeometry x="32" y="78" width="150" height="39" as="geometry" />
        </mxCell>
        <mxCell id="5en8-DEIEH1vQv8uQwFA-19" value="&lt;font style=&quot;font-size: 18px;&quot;&gt;http&lt;/font&gt;" style="text;html=1;align=center;verticalAlign=middle;whiteSpace=wrap;rounded=0;" vertex="1" parent="1">
          <mxGeometry x="338" y="75" width="104" height="42" as="geometry" />
        </mxCell>
        <mxCell id="5en8-DEIEH1vQv8uQwFA-20" value="&lt;span style=&quot;font-size: 18px;&quot;&gt;web被夺权用户(b)&lt;/span&gt;" style="text;html=1;align=center;verticalAlign=middle;whiteSpace=wrap;rounded=0;" vertex="1" parent="1">
          <mxGeometry x="871" y="78" width="195" height="42" as="geometry" />
        </mxCell>
        <mxCell id="5en8-DEIEH1vQv8uQwFA-21" value="&lt;font style=&quot;font-size: 18px;&quot;&gt;ws&lt;/font&gt;" style="text;html=1;align=center;verticalAlign=middle;whiteSpace=wrap;rounded=0;" vertex="1" parent="1">
          <mxGeometry x="537" y="65" width="86" height="34" as="geometry" />
        </mxCell>
        <mxCell id="5en8-DEIEH1vQv8uQwFA-22" value="" style="endArrow=classic;html=1;rounded=0;entryX=0;entryY=0.096;entryDx=0;entryDy=0;entryPerimeter=0;exitX=1;exitY=0.096;exitDx=0;exitDy=0;exitPerimeter=0;" edge="1" parent="1" source="5en8-DEIEH1vQv8uQwFA-4" target="5en8-DEIEH1vQv8uQwFA-5">
          <mxGeometry width="50" height="50" relative="1" as="geometry">
            <mxPoint x="442" y="206" as="sourcePoint" />
            <mxPoint x="492" y="156" as="targetPoint" />
          </mxGeometry>
        </mxCell>
        <mxCell id="5en8-DEIEH1vQv8uQwFA-23" value="" style="endArrow=classic;html=1;rounded=0;entryX=-0.047;entryY=0.091;entryDx=0;entryDy=0;entryPerimeter=0;exitX=1.034;exitY=0.095;exitDx=0;exitDy=0;exitPerimeter=0;" edge="1" parent="1" source="5en8-DEIEH1vQv8uQwFA-5" target="5en8-DEIEH1vQv8uQwFA-8">
          <mxGeometry width="50" height="50" relative="1" as="geometry">
            <mxPoint x="728" y="232" as="sourcePoint" />
            <mxPoint x="778" y="182" as="targetPoint" />
          </mxGeometry>
        </mxCell>
        <mxCell id="5en8-DEIEH1vQv8uQwFA-24" value="&lt;font style=&quot;font-size: 18px;&quot;&gt;drc_transfer_request&lt;/font&gt;" style="text;html=1;align=center;verticalAlign=middle;whiteSpace=wrap;rounded=0;" vertex="1" parent="1">
          <mxGeometry x="689" y="138.5" width="182" height="39" as="geometry" />
        </mxCell>
        <mxCell id="5en8-DEIEH1vQv8uQwFA-25" value="" style="endArrow=classic;html=1;rounded=0;exitX=0.074;exitY=0.275;exitDx=0;exitDy=0;exitPerimeter=0;entryX=1;entryY=0.5;entryDx=0;entryDy=0;" edge="1" parent="1" source="5en8-DEIEH1vQv8uQwFA-8" target="5en8-DEIEH1vQv8uQwFA-27">
          <mxGeometry width="50" height="50" relative="1" as="geometry">
            <mxPoint x="871" y="336" as="sourcePoint" />
            <mxPoint x="611" y="326" as="targetPoint" />
          </mxGeometry>
        </mxCell>
        <mxCell id="5en8-DEIEH1vQv8uQwFA-26" value="" style="endArrow=classic;html=1;rounded=0;exitX=0;exitY=0.308;exitDx=0;exitDy=0;exitPerimeter=0;entryX=0.908;entryY=0.306;entryDx=0;entryDy=0;entryPerimeter=0;" edge="1" parent="1" target="5en8-DEIEH1vQv8uQwFA-1">
          <mxGeometry width="50" height="50" relative="1" as="geometry">
            <mxPoint x="559" y="325.2080000000001" as="sourcePoint" />
            <mxPoint x="130" y="325" as="targetPoint" />
          </mxGeometry>
        </mxCell>
        <mxCell id="5en8-DEIEH1vQv8uQwFA-27" value="&lt;span style=&quot;font-size: 18px;&quot;&gt;drc_transfer_request_reply&lt;/span&gt;" style="text;html=1;align=center;verticalAlign=middle;whiteSpace=wrap;rounded=0;" vertex="1" parent="1">
          <mxGeometry x="161" y="286" width="255" height="39" as="geometry" />
        </mxCell>
        <mxCell id="5en8-DEIEH1vQv8uQwFA-28" value="&lt;div&gt;&lt;font style=&quot;&quot;&gt;&lt;span style=&quot;font-size: 18px;&quot;&gt;/drc/transfer-reply&lt;/span&gt;&lt;/font&gt;&lt;/div&gt;&lt;font style=&quot;font-size: 18px;&quot;&gt;Y:同意&lt;/font&gt;&lt;div&gt;&lt;span style=&quot;font-size: 18px;&quot;&gt;退出drc模式exit&lt;/span&gt;&lt;/div&gt;&lt;div&gt;&lt;div&gt;&lt;div&gt;&lt;font size=&quot;3&quot;&gt;T:拒绝&lt;/font&gt;&lt;/div&gt;&lt;/div&gt;&lt;/div&gt;" style="text;html=1;align=center;verticalAlign=middle;whiteSpace=wrap;rounded=0;" vertex="1" parent="1">
          <mxGeometry x="637" y="234" width="195" height="78" as="geometry" />
        </mxCell>
      </root>
    </mxGraphModel>
  </diagram>
</mxfile>
